<mxfile host="Electron" modified="2023-09-07T02:04:50.758Z" agent="Mozilla/5.0 (Windows NT 10.0; Win64; x64) AppleWebKit/537.36 (KHTML, like Gecko) draw.io/21.6.5 Chrome/114.0.5735.243 Electron/25.3.1 Safari/537.36" etag="loLbRQ6csabkr6a3siPD" version="21.6.5" type="device">
  <diagram id="wTWqfM15VbifIKMEE-Pm" name="Page-1">
    <mxGraphModel dx="4136" dy="3520" grid="1" gridSize="10" guides="1" tooltips="1" connect="1" arrows="1" fold="1" page="1" pageScale="1" pageWidth="850" pageHeight="1100" math="0" shadow="0">
      <root>
        <mxCell id="0" />
        <mxCell id="1" parent="0" />
        <mxCell id="8" style="edgeStyle=none;html=1;exitX=0.5;exitY=1;exitDx=0;exitDy=0;entryX=0.5;entryY=0;entryDx=0;entryDy=0;" parent="1" source="2" target="3" edge="1">
          <mxGeometry relative="1" as="geometry" />
        </mxCell>
        <mxCell id="2" value="&lt;font style=&quot;font-size: 21px;&quot;&gt;Réveille dans un monde surréaliste&lt;/font&gt;" style="rounded=1;whiteSpace=wrap;html=1;fillColor=#008a00;fontColor=#ffffff;strokeColor=#005700;" parent="1" vertex="1">
          <mxGeometry x="655" y="-260" width="270" height="110" as="geometry" />
        </mxCell>
        <mxCell id="5" style="edgeStyle=orthogonalEdgeStyle;html=1;exitX=0.5;exitY=1;exitDx=0;exitDy=0;entryX=0.5;entryY=0;entryDx=0;entryDy=0;" parent="1" source="3" target="4" edge="1">
          <mxGeometry relative="1" as="geometry" />
        </mxCell>
        <mxCell id="7" style="edgeStyle=none;html=1;exitX=1;exitY=0.5;exitDx=0;exitDy=0;entryX=0;entryY=0.5;entryDx=0;entryDy=0;" parent="1" source="3" target="6" edge="1">
          <mxGeometry relative="1" as="geometry" />
        </mxCell>
        <mxCell id="3" value="&lt;span style=&quot;font-size: 21px;&quot;&gt;Vous explorez l&#39;environnement pour sortir de ce rêve&lt;br&gt;&lt;/span&gt;" style="rhombus;whiteSpace=wrap;html=1;fillColor=#6a00ff;fontColor=#ffffff;strokeColor=#3700CC;rounded=1;" parent="1" vertex="1">
          <mxGeometry x="688" y="-90" width="205" height="205" as="geometry" />
        </mxCell>
        <mxCell id="34" style="html=1;entryX=0.5;entryY=0;entryDx=0;entryDy=0;fontSize=21;exitX=0.5;exitY=1;exitDx=0;exitDy=0;edgeStyle=orthogonalEdgeStyle;" parent="1" source="4" target="25" edge="1">
          <mxGeometry relative="1" as="geometry" />
        </mxCell>
        <mxCell id="4" value="&lt;font style=&quot;font-size: 21px;&quot;&gt;Aller vers la plaine&lt;/font&gt;" style="rounded=1;whiteSpace=wrap;html=1;fillColor=#1ba1e2;fontColor=#ffffff;strokeColor=#006EAF;arcSize=22;" parent="1" vertex="1">
          <mxGeometry x="706" y="190" width="169" height="80" as="geometry" />
        </mxCell>
        <mxCell id="10" style="edgeStyle=none;html=1;exitX=1;exitY=0.5;exitDx=0;exitDy=0;entryX=0;entryY=0.5;entryDx=0;entryDy=0;" parent="1" source="6" edge="1">
          <mxGeometry relative="1" as="geometry">
            <mxPoint x="1225" y="12.5" as="targetPoint" />
          </mxGeometry>
        </mxCell>
        <mxCell id="6" value="&lt;font style=&quot;font-size: 21px;&quot;&gt;Aller vers la forêt suspicieuse&lt;br&gt;&lt;/font&gt;" style="rounded=1;whiteSpace=wrap;html=1;fillColor=#1ba1e2;fontColor=#ffffff;strokeColor=#006EAF;" parent="1" vertex="1">
          <mxGeometry x="965" y="-42.5" width="165" height="110" as="geometry" />
        </mxCell>
        <mxCell id="14" value="&lt;font style=&quot;font-size: 24px;&quot;&gt;Recommence&lt;/font&gt;" style="edgeStyle=elbowEdgeStyle;html=1;exitX=1;exitY=0.5;exitDx=0;exitDy=0;entryX=1;entryY=0.5;entryDx=0;entryDy=0;" parent="1" target="2" edge="1">
          <mxGeometry x="0.3475" relative="1" as="geometry">
            <Array as="points">
              <mxPoint x="1315" y="-80" />
              <mxPoint x="1325" y="-100" />
              <mxPoint x="1140" y="40" />
            </Array>
            <mxPoint x="-1" as="offset" />
            <mxPoint x="1395" y="12.5" as="sourcePoint" />
          </mxGeometry>
        </mxCell>
        <mxCell id="13" value="&lt;font style=&quot;font-size: 27px;&quot;&gt;Retour&lt;/font&gt;" style="edgeStyle=elbowEdgeStyle;html=1;exitX=0.5;exitY=0;exitDx=0;exitDy=0;entryX=0;entryY=0.5;entryDx=0;entryDy=0;" parent="1" source="11" target="2" edge="1">
          <mxGeometry x="0.0079" relative="1" as="geometry">
            <Array as="points">
              <mxPoint x="325" y="1520" />
              <mxPoint x="265" y="1560" />
              <mxPoint x="255" y="1560" />
              <mxPoint x="440" y="10" />
            </Array>
            <mxPoint y="-1" as="offset" />
          </mxGeometry>
        </mxCell>
        <mxCell id="11" value="&lt;font style=&quot;font-size: 21px;&quot;&gt;Vous vous réveillez dans un hôpital mental&lt;br&gt;&lt;/font&gt;" style="rounded=1;whiteSpace=wrap;html=1;fillColor=#60a917;fontColor=#ffffff;strokeColor=#2D7600;" parent="1" vertex="1">
          <mxGeometry x="220" y="1672.5" width="210" height="117.5" as="geometry" />
        </mxCell>
        <mxCell id="24" value="&lt;div style=&quot;text-align: left; font-size: 28px;&quot;&gt;&lt;span style=&quot;background-color: initial;&quot;&gt;&lt;font style=&quot;font-size: 28px;&quot;&gt;Genre : surréelle et suspence&lt;/font&gt;&lt;/span&gt;&lt;/div&gt;&lt;font style=&quot;font-size: 28px;&quot;&gt;&lt;div style=&quot;text-align: left;&quot;&gt;&lt;span style=&quot;background-color: initial;&quot;&gt;&lt;font style=&quot;font-size: 28px;&quot;&gt;Inspiration : Alice Wonderland et style Dreamcore&amp;nbsp;&lt;/font&gt;&lt;/span&gt;&lt;/div&gt;&lt;div style=&quot;text-align: left;&quot;&gt;&lt;span style=&quot;background-color: initial;&quot;&gt;&lt;font style=&quot;font-size: 28px;&quot;&gt;Titre : Welcome to Wonderland&lt;/font&gt;&lt;/span&gt;&lt;/div&gt;&lt;div style=&quot;text-align: left;&quot;&gt;&lt;font style=&quot;font-size: 28px;&quot;&gt;&lt;br&gt;&lt;/font&gt;&lt;/div&gt;&lt;div style=&quot;text-align: left;&quot;&gt;&lt;span style=&quot;background-color: initial;&quot;&gt;&lt;font style=&quot;font-size: 28px;&quot;&gt;Palette de couleur :&amp;nbsp;&amp;nbsp;&lt;/font&gt;&lt;/span&gt;&lt;/div&gt;&lt;div style=&quot;text-align: left;&quot;&gt;&lt;font style=&quot;font-size: 28px;&quot;&gt;&lt;br&gt;&lt;/font&gt;&lt;/div&gt;&lt;div style=&quot;text-align: left;&quot;&gt;&lt;font style=&quot;font-size: 28px;&quot;&gt;couleur de fond du site : La couleur du fond doit être proche de l&#39;image à l&#39;intérieur du contenu (chaques chapitres ont leur propre image de location différent =­ couleur différent)&lt;/font&gt;&lt;/div&gt;&lt;div style=&quot;text-align: left;&quot;&gt;&lt;span style=&quot;background-color: initial;&quot;&gt;couleur de fond du contenu : #ffffff avec un peu de transparence&lt;/span&gt;&lt;/div&gt;&lt;div style=&quot;text-align: left;&quot;&gt;&lt;font style=&quot;font-size: 28px;&quot;&gt;couleur de la police : #000000&lt;/font&gt;&lt;/div&gt;&lt;div style=&quot;text-align: left;&quot;&gt;&lt;font style=&quot;font-size: 28px;&quot;&gt;couleur de fond des boutons : #d3d3d3&lt;/font&gt;&lt;/div&gt;&lt;div style=&quot;text-align: left;&quot;&gt;&lt;font style=&quot;font-size: 28px;&quot;&gt;couleur de fond des boutons en hover : #8e8e8e&lt;/font&gt;&lt;/div&gt;&lt;div style=&quot;text-align: left;&quot;&gt;&lt;font style=&quot;font-size: 28px;&quot;&gt;couleur de la police des boutons : #ffffff&lt;/font&gt;&lt;/div&gt;&lt;div style=&quot;font-size: 26px; text-align: left;&quot;&gt;&lt;br&gt;&lt;/div&gt;&lt;/font&gt;" style="text;html=1;align=center;verticalAlign=middle;whiteSpace=wrap;rounded=0;fontSize=17;" parent="1" vertex="1">
          <mxGeometry x="545" y="-730" width="850" height="370" as="geometry" />
        </mxCell>
        <mxCell id="40" style="edgeStyle=elbowEdgeStyle;html=1;exitX=0;exitY=1;exitDx=0;exitDy=0;entryX=1;entryY=0.5;entryDx=0;entryDy=0;fontSize=21;" parent="1" source="25" target="39" edge="1">
          <mxGeometry relative="1" as="geometry">
            <Array as="points">
              <mxPoint x="790" y="620" />
            </Array>
          </mxGeometry>
        </mxCell>
        <mxCell id="42" style="edgeStyle=elbowEdgeStyle;html=1;fontSize=21;" parent="1" source="25" target="41" edge="1">
          <mxGeometry relative="1" as="geometry" />
        </mxCell>
        <mxCell id="25" value="&lt;font style=&quot;font-size: 21px;&quot;&gt;En voyant les dangers, vous ne sait pas quoi faire&lt;br&gt;&lt;/font&gt;" style="rhombus;whiteSpace=wrap;html=1;fillColor=#6a00ff;fontColor=#ffffff;strokeColor=#3700CC;rounded=1;" parent="1" vertex="1">
          <mxGeometry x="675.5" y="390" width="230" height="220" as="geometry" />
        </mxCell>
        <mxCell id="33" style="edgeStyle=none;html=1;fontSize=14;exitX=0;exitY=0.5;exitDx=0;exitDy=0;" parent="1" source="77" target="11" edge="1">
          <mxGeometry relative="1" as="geometry" />
        </mxCell>
        <mxCell id="78" style="edgeStyle=elbowEdgeStyle;elbow=vertical;html=1;exitX=0.5;exitY=1;exitDx=0;exitDy=0;entryX=0.5;entryY=0;entryDx=0;entryDy=0;fontSize=27;" parent="1" source="27" target="91" edge="1">
          <mxGeometry relative="1" as="geometry" />
        </mxCell>
        <mxCell id="99" style="edgeStyle=elbowEdgeStyle;html=1;entryX=0.5;entryY=0;entryDx=0;entryDy=0;fontSize=26;" parent="1" source="27" target="87" edge="1">
          <mxGeometry relative="1" as="geometry">
            <Array as="points">
              <mxPoint x="545" y="1340" />
            </Array>
          </mxGeometry>
        </mxCell>
        <mxCell id="27" value="&lt;span style=&quot;font-size: 21px;&quot;&gt;Aller vers la dernière chambre (où se trouve la sortie)&lt;/span&gt;" style="rhombus;whiteSpace=wrap;html=1;fillColor=#6a00ff;fontColor=#ffffff;strokeColor=#3700CC;rounded=1;" parent="1" vertex="1">
          <mxGeometry x="680" y="1230" width="220" height="220" as="geometry" />
        </mxCell>
        <mxCell id="59" style="edgeStyle=orthogonalEdgeStyle;html=1;exitX=0.5;exitY=0;exitDx=0;exitDy=0;" parent="1" source="61" target="57" edge="1">
          <mxGeometry relative="1" as="geometry">
            <mxPoint x="1315" y="470" as="sourcePoint" />
          </mxGeometry>
        </mxCell>
        <mxCell id="h3IthZ3UcecIBK0m8B5o-102" value="&lt;font style=&quot;font-size: 24px;&quot;&gt;Recommence&amp;nbsp;&amp;nbsp;&lt;/font&gt;" style="edgeLabel;html=1;align=center;verticalAlign=middle;resizable=0;points=[];" parent="59" vertex="1" connectable="0">
          <mxGeometry x="0.0191" relative="1" as="geometry">
            <mxPoint as="offset" />
          </mxGeometry>
        </mxCell>
        <mxCell id="31" value="&lt;span style=&quot;font-size: 21px;&quot;&gt;Vous êtes coincé dans ce rêve&lt;br&gt;&lt;/span&gt;" style="rounded=1;whiteSpace=wrap;html=1;fillColor=#a20025;fontColor=#ffffff;strokeColor=#6F0000;" parent="1" vertex="1">
          <mxGeometry x="1215" y="1060" width="190" height="95" as="geometry" />
        </mxCell>
        <mxCell id="48" style="edgeStyle=elbowEdgeStyle;html=1;exitX=0.5;exitY=0;exitDx=0;exitDy=0;fontSize=21;entryX=0.5;entryY=1;entryDx=0;entryDy=0;" parent="1" source="31" target="61" edge="1">
          <mxGeometry relative="1" as="geometry">
            <mxPoint x="1315" y="690" as="sourcePoint" />
            <mxPoint x="1314.7647058823532" y="530" as="targetPoint" />
          </mxGeometry>
        </mxCell>
        <mxCell id="h3IthZ3UcecIBK0m8B5o-103" value="&lt;font style=&quot;font-size: 24px;&quot;&gt;Recommence&lt;/font&gt;" style="edgeLabel;html=1;align=center;verticalAlign=middle;resizable=0;points=[];" parent="48" vertex="1" connectable="0">
          <mxGeometry x="-0.0868" y="-1" relative="1" as="geometry">
            <mxPoint x="-6" as="offset" />
          </mxGeometry>
        </mxCell>
        <mxCell id="64" style="edgeStyle=orthogonalEdgeStyle;html=1;entryX=0.5;entryY=0;entryDx=0;entryDy=0;" parent="1" source="39" target="26" edge="1">
          <mxGeometry relative="1" as="geometry" />
        </mxCell>
        <mxCell id="39" value="&lt;font style=&quot;font-size: 21px;&quot;&gt;S&#39;échapper dans une porte complètement obscure&lt;/font&gt;" style="rounded=1;whiteSpace=wrap;html=1;fillColor=#1ba1e2;fontColor=#ffffff;strokeColor=#006EAF;" parent="1" vertex="1">
          <mxGeometry x="690.75" y="640" width="200" height="100" as="geometry" />
        </mxCell>
        <mxCell id="46" style="edgeStyle=elbowEdgeStyle;html=1;exitX=1;exitY=0.5;exitDx=0;exitDy=0;fontSize=21;entryX=0;entryY=0.5;entryDx=0;entryDy=0;" parent="1" source="41" target="61" edge="1">
          <mxGeometry relative="1" as="geometry">
            <mxPoint x="1255" y="500" as="targetPoint" />
          </mxGeometry>
        </mxCell>
        <mxCell id="41" value="&lt;span style=&quot;font-size: 21px;&quot;&gt;Vous attaquez la créature&lt;/span&gt;" style="rounded=1;whiteSpace=wrap;html=1;fillColor=#1ba1e2;fontColor=#ffffff;strokeColor=#006EAF;" parent="1" vertex="1">
          <mxGeometry x="977.5" y="460" width="167.5" height="80" as="geometry" />
        </mxCell>
        <mxCell id="67" style="edgeStyle=orthogonalEdgeStyle;html=1;" parent="1" source="26" target="66" edge="1">
          <mxGeometry relative="1" as="geometry" />
        </mxCell>
        <mxCell id="71" style="edgeStyle=elbowEdgeStyle;elbow=vertical;html=1;exitX=0.5;exitY=1;exitDx=0;exitDy=0;entryX=0.5;entryY=0;entryDx=0;entryDy=0;" parent="1" source="26" target="65" edge="1">
          <mxGeometry relative="1" as="geometry">
            <Array as="points">
              <mxPoint x="655" y="895" />
            </Array>
          </mxGeometry>
        </mxCell>
        <mxCell id="26" value="&lt;font style=&quot;font-size: 21px;&quot;&gt;vous retrouvez dans une maison de poupées&lt;br&gt;&lt;/font&gt;" style="rhombus;whiteSpace=wrap;html=1;fillColor=#6a00ff;fontColor=#ffffff;strokeColor=#3700CC;rounded=1;" parent="1" vertex="1">
          <mxGeometry x="674.5" y="780" width="230.5" height="230" as="geometry" />
        </mxCell>
        <mxCell id="57" value="&lt;span style=&quot;font-size: 21px;&quot;&gt;Vous êtes mort par des hallucinations&amp;nbsp;&amp;nbsp;&lt;/span&gt;" style="rounded=1;whiteSpace=wrap;html=1;fillColor=#a20025;fontColor=#ffffff;strokeColor=#6F0000;" parent="1" vertex="1">
          <mxGeometry x="1215" y="-35" width="190" height="95" as="geometry" />
        </mxCell>
        <mxCell id="61" value="&lt;span style=&quot;font-size: 21px;&quot;&gt;Vous ne sentez plus rien et vous tomber dans le noir&lt;br&gt;&lt;/span&gt;" style="rounded=1;whiteSpace=wrap;html=1;fillColor=#a20025;fontColor=#ffffff;strokeColor=#6F0000;" parent="1" vertex="1">
          <mxGeometry x="1215" y="452.5" width="190" height="95" as="geometry" />
        </mxCell>
        <mxCell id="72" style="edgeStyle=elbowEdgeStyle;elbow=vertical;html=1;exitX=0.5;exitY=1;exitDx=0;exitDy=0;entryX=0.5;entryY=0;entryDx=0;entryDy=0;fontSize=27;" parent="1" source="65" target="27" edge="1">
          <mxGeometry relative="1" as="geometry">
            <Array as="points">
              <mxPoint x="655" y="1190" />
            </Array>
          </mxGeometry>
        </mxCell>
        <mxCell id="65" value="&lt;span style=&quot;font-size: 21px;&quot;&gt;buver le thé&amp;nbsp;&lt;/span&gt;&lt;span style=&quot;font-size: 21px;&quot;&gt;entendre une voix = le code&lt;/span&gt;" style="rounded=1;whiteSpace=wrap;html=1;fillColor=#f0a30a;fontColor=#000000;strokeColor=#BD7000;" parent="1" vertex="1">
          <mxGeometry x="455" y="970" width="160" height="140" as="geometry" />
        </mxCell>
        <mxCell id="69" style="edgeStyle=elbowEdgeStyle;html=1;exitX=0.5;exitY=1;exitDx=0;exitDy=0;elbow=vertical;entryX=0.5;entryY=0;entryDx=0;entryDy=0;" parent="1" source="66" target="27" edge="1">
          <mxGeometry relative="1" as="geometry">
            <mxPoint x="915" y="1030" as="targetPoint" />
            <Array as="points">
              <mxPoint x="805" y="1180" />
              <mxPoint x="935" y="1240" />
              <mxPoint x="875" y="1090" />
            </Array>
          </mxGeometry>
        </mxCell>
        <mxCell id="66" value="&lt;span style=&quot;font-size: 21px;&quot;&gt;Explorer la &quot;cuisine&quot;&lt;/span&gt;" style="rounded=1;whiteSpace=wrap;html=1;fillColor=#1ba1e2;fontColor=#ffffff;strokeColor=#006EAF;" parent="1" vertex="1">
          <mxGeometry x="681.9300000000001" y="1030" width="215.63" height="112.5" as="geometry" />
        </mxCell>
        <mxCell id="80" style="edgeStyle=elbowEdgeStyle;elbow=vertical;html=1;exitX=1;exitY=0.5;exitDx=0;exitDy=0;fontSize=27;" parent="1" source="77" target="79" edge="1">
          <mxGeometry relative="1" as="geometry" />
        </mxCell>
        <mxCell id="77" value="&lt;span style=&quot;font-size: 21px;&quot;&gt;Ajuster le temps avec la montre&lt;br&gt;à la sortie&lt;br&gt;&lt;/span&gt;" style="rhombus;whiteSpace=wrap;html=1;fillColor=#6a00ff;fontColor=#ffffff;strokeColor=#3700CC;rounded=1;" parent="1" vertex="1">
          <mxGeometry x="690.25" y="1631" width="200.5" height="200.5" as="geometry" />
        </mxCell>
        <mxCell id="81" style="edgeStyle=elbowEdgeStyle;elbow=vertical;html=1;exitX=0.5;exitY=0;exitDx=0;exitDy=0;entryX=0.5;entryY=1;entryDx=0;entryDy=0;fontSize=27;" parent="1" source="79" target="31" edge="1">
          <mxGeometry relative="1" as="geometry">
            <Array as="points">
              <mxPoint x="1275" y="1300" />
            </Array>
          </mxGeometry>
        </mxCell>
        <mxCell id="h3IthZ3UcecIBK0m8B5o-104" value="&lt;font style=&quot;font-size: 24px;&quot;&gt;Recommence&lt;/font&gt;" style="edgeLabel;html=1;align=center;verticalAlign=middle;resizable=0;points=[];" parent="81" vertex="1" connectable="0">
          <mxGeometry x="-0.0057" y="4" relative="1" as="geometry">
            <mxPoint as="offset" />
          </mxGeometry>
        </mxCell>
        <mxCell id="79" value="&lt;span style=&quot;font-size: 21px;&quot;&gt;Pas le bon code vous restez coincer&lt;br&gt;&lt;/span&gt;" style="rounded=1;whiteSpace=wrap;html=1;fillColor=#a20025;fontColor=#ffffff;strokeColor=#6F0000;" parent="1" vertex="1">
          <mxGeometry x="1215" y="1677.5" width="190" height="95" as="geometry" />
        </mxCell>
        <mxCell id="100" style="edgeStyle=elbowEdgeStyle;html=1;fontSize=26;elbow=vertical;" parent="1" source="87" target="77" edge="1">
          <mxGeometry relative="1" as="geometry">
            <mxPoint x="785" y="1631" as="targetPoint" />
            <Array as="points">
              <mxPoint x="546" y="1610" />
            </Array>
          </mxGeometry>
        </mxCell>
        <mxCell id="87" value="&lt;span style=&quot;font-size: 21px;&quot;&gt;explorer la maison&lt;br&gt;&lt;/span&gt;&lt;span style=&quot;font-size: 21px;&quot;&gt;(Trouver la montre)&lt;/span&gt;" style="rounded=1;whiteSpace=wrap;html=1;fillColor=#f0a30a;fontColor=#000000;strokeColor=#BD7000;" parent="1" vertex="1">
          <mxGeometry x="445" y="1420" width="201.27" height="70" as="geometry" />
        </mxCell>
        <mxCell id="93" style="edgeStyle=elbowEdgeStyle;html=1;exitX=0.5;exitY=1;exitDx=0;exitDy=0;entryX=0.506;entryY=0.028;entryDx=0;entryDy=0;entryPerimeter=0;fontSize=26;" parent="1" source="91" target="77" edge="1">
          <mxGeometry relative="1" as="geometry" />
        </mxCell>
        <mxCell id="91" value="&lt;span style=&quot;font-size: 21px;&quot;&gt;partir tout de suite&lt;/span&gt;" style="rounded=1;whiteSpace=wrap;html=1;fillColor=#1ba1e2;fontColor=#ffffff;strokeColor=#006EAF;" parent="1" vertex="1">
          <mxGeometry x="675" y="1490" width="230" height="80" as="geometry" />
        </mxCell>
      </root>
    </mxGraphModel>
  </diagram>
</mxfile>
